<?xml version="1.0" encoding="utf-8"?>
<!-- Generator: Adobe Illustrator 24.0.1, SVG Export Plug-In . SVG Version: 6.00 Build 0)  -->
<svg version="1.1" id="b1dd317e-8fb9-42d0-9880-4f9abd167789"
	 xmlns="http://www.w3.org/2000/svg" xmlns:xlink="http://www.w3.org/1999/xlink" x="0px" y="0px" viewBox="0 0 490 729"
	 style="enable-background:new 0 0 490 729;" xml:space="preserve">
<style type="text/css">
	.st0{fill:#3F3D56;}
	.st1{fill:#F50057;}
	.st2{fill:#2F2E41;}
	.st3{fill:#FFFFFF;}
	.st4{opacity:0.1;enable-background:new    ;}
	.st5{fill:#F2F2F2;}
</style>
<title>chore_list</title>
<path class="st0" d="M48.5,46.6C31.3,49.7,20,66.1,23.1,83.2l19.3,106.4l-5.3,1.3l13.2,72.3l5.1-1.5l69,381.3
	c4.9,27,29,46.2,56.4,44.8l247.4-12.2c2.4-0.1,4.7-0.4,7.1-1c22.3-5,36.3-27.1,31.2-49.4L344.8,86c-5.3-23.3-26-39.9-49.9-39.9H54.3
	C52.4,46.1,50.4,46.3,48.5,46.6z"/>
<path class="st1" d="M263.3,57.7c-0.7,9.2-8.4,16.3-17.6,16.3H119.1c-4.7,0-8.8-3.1-10-7.7l0,0c-1.4-5.1-6-8.7-11.3-8.7H71.2
	c-1.5,0-3,0.1-4.4,0.4c-13.5,2.4-22.5,15.4-20,28.9l99.6,552.8c2.6,14.2,15.4,24.2,29.8,23.3l246.6-16.2c1.1-0.1,2.2-0.2,3.2-0.5
	c11.8-2.6,19.3-14.3,16.7-26.1L325.9,85.5c-3.5-16.2-17.9-27.8-34.5-27.8L263.3,57.7L263.3,57.7z"/>
<rect x="86.7" y="196" class="st2" width="255.1" height="1.3"/>
<rect x="94.2" y="236.8" class="st2" width="257.6" height="1.3"/>
<polygon class="st3" points="201.2,154.1 195.4,146.4 196.4,145.6 201.4,152.3 220.7,136.5 221.5,137.5 "/>
<polygon class="st3" points="232.9,332 227.1,324.3 228.1,323.6 233.1,330.2 252.5,314.4 253.2,315.4 "/>
<rect x="113" y="379.1" transform="matrix(0.9998 -2.117175e-02 2.117175e-02 0.9998 -7.9852 5.3063)" class="st2" width="267.1" height="1.3"/>
<rect x="116.2" y="416.5" transform="matrix(0.9997 -2.308849e-02 2.308849e-02 0.9997 -9.5644 5.9356)" class="st2" width="272.2" height="1.3"/>
<path class="st4" d="M278.9,460.9c32.9-1.2,60.7,24.5,61.9,57.4c0,0.7,0,1.5,0,2.2c0,33-26.7,59.7-59.7,59.7
	c-33,0-59.7-26.7-59.7-59.7C221.5,488.4,246.9,462.1,278.9,460.9z"/>
<path class="st4" d="M227.1,543.8c0-23.1,13.3-44.1,34.2-54c29.8-14.1,65.4-1.3,79.5,28.5c0,0.7,0,1.5,0,2.2
	c0,23.1-13.3,44.1-34.2,54c-29.8,14.1-65.4,1.3-79.5-28.5C227.1,545.3,227.1,544.5,227.1,543.8L227.1,543.8z"/>
<polygon class="st5" points="273.5,542.1 252.3,513.8 257.3,510 274.6,533 342.6,477.3 346.6,482.2 "/>
</svg>
