<?xml version="1.0" encoding="utf-8"?>
<!-- Generator: Adobe Illustrator 24.0.1, SVG Export Plug-In . SVG Version: 6.00 Build 0)  -->
<svg version="1.1" id="abc6f0fe-ac59-4901-a46a-93a5eed63bf8"
	 xmlns="http://www.w3.org/2000/svg" xmlns:xlink="http://www.w3.org/1999/xlink" x="0px" y="0px" viewBox="0 0 581.8 650.5"
	 style="enable-background:new 0 0 581.8 650.5;" xml:space="preserve">
<style type="text/css">
	.st0{fill:#3F3D56;}
	.st1{fill:#FFFFFF;}
	.st2{fill:#A0616A;}
	.st3{fill:#2F2E41;}
	.st4{fill:#F50057;}
	.st5{fill:#E6E6E6;}
</style>
<path class="st0" d="M550,0H309.4c-23.9,0-44.6,16.6-49.9,39.9L138,579.2c-5,22.3,9,44.4,31.2,49.4c2.3,0.5,4.7,0.8,7.1,1
	l247.4,12.2c27.4,1.3,51.5-17.8,56.4-44.8l69-381.3l5.1,1.5l13.2-72.3l-5.3-1.3l19.3-106.4C584.4,20,573,3.6,555.9,0.5
	C554,0.2,552,0,550,0L550,0z"/>
<path class="st1" d="M341.1,11.6H313c-16.6,0-31,11.6-34.5,27.8L161.8,574.3c-2.6,11.8,4.9,23.5,16.7,26.1c1.1,0.2,2.1,0.4,3.2,0.5
	L428.3,617c14.4,0.9,27.2-9.1,29.8-23.3l99.6-552.8c2.4-13.5-6.5-26.4-20-28.9c-1.5-0.3-2.9-0.4-4.4-0.4h-26.6
	c-5.3,0-9.9,3.6-11.3,8.7l0,0c-1.2,4.5-5.3,7.7-10,7.7H358.7C349.5,28,341.8,20.8,341.1,11.6L341.1,11.6z"/>
<path class="st2" d="M77.2,286.7l21.7,43l65,29.6c6.9,11.7,29,12.6,30.6,5c1.8-8.5-26.8-22.2-26.8-22.2l-54.4-36.8l-4.8-31.7
	L77.2,286.7z"/>
<polygon class="st2" points="79.8,575.6 75.7,607.6 99,609.2 101.4,575.6 "/>
<path class="st3" d="M83,602.8c-2.1-2.2-4-4.5-5.7-7c-3.3-4.6-6.3,19-6.3,19s-3.2,9.6-2.4,14.4s19.2,4.8,22.5,4s19.2,0,19.2,0h24.1
	c20.8-9.6,0-16,0-16c-6.4-0.8-28.1-20.8-28.1-20.8l-4.8-8.8c-3.2-0.8-6.4,11.2-6.4,11.2L83,602.8z"/>
<polygon class="st2" points="19.6,576 15.6,608 38.9,609.6 41.3,576 "/>
<path class="st3" d="M22.8,603.2c-2.1-2.2-4-4.5-5.7-7c-3.3-4.6-6.3,19-6.3,19s-3.2,8.8-2.4,13.6s19.2,4.8,22.5,4s19.2,0.8,19.2,0.8
	h24.1c20.8-9.6,0-16,0-16c-6.4-0.8-28.1-20.8-28.1-20.8l-4.8-8.8c-3.2-0.8-6.4,11.2-6.4,11.2L22.8,603.2z"/>
<path class="st3" d="M46.1,369.1c-3.2,4-1.6,17.6-1.6,17.6s-5.6,44.1-3.2,48.1s-1.6,7.2-4,12.8s-4.8,19.2-4.8,19.2
	c-13.6,11.2-12.8,62.5-12.8,62.5l-4.8,45.7c1.6,4.8,24.1,5.6,27.3,4.8s12.8-73,12.8-73l21.6-40.9c0,0-1.6,109-1.6,113.9
	s21.6,2.4,26.5,2.4s4.8-80.2,4.8-80.2l4.8-20.8l25.7-95.4v-11.2l-4-5.6C132.7,369.1,49.3,365.1,46.1,369.1z"/>
<circle class="st2" cx="81.4" cy="162.2" r="24.9"/>
<path class="st2" d="M93.8,173.8c-5,11.2-2.1,26.9,8,44.1l-40.9-19.2l6.4-5.6l-1.6-16L93.8,173.8z"/>
<path class="st4" d="M93.8,199.5c5.4,3.2,8.6,9,10.4,15c3.4,11,5.5,22.4,6.1,33.9l1.9,34.5l24.1,91.4c-20.8,17.6-32.9,13.6-60.9-0.8
	c-28.1-14.4-31.3,4.8-31.3,4.8s-2.4-0.8,0-3.2s0,0-2.4-2.4c-2.4-2.4,0,0,0.8-2.4c0.8-2.4,0-0.8-0.8-1.6c-0.8-0.8,3.2-8,3.2-8
	l-6.4-60.1l-8-85c9.6-12,36.9-22.5,36.9-22.5l24.9,17.6c8,3.2,1.6-9.6,1.6-9.6L93.8,199.5z"/>
<path class="st2" d="M17.2,266.5L14,314.6l40.9,58.5c0,13.6,7.2,16.8,7.2,16.8c2.7-4.4,5.1-8.9,7.2-13.6c4-8.8-2.4-16-2.4-16
	l-28.1-59.3l12-29.7L17.2,266.5z"/>
<path class="st4" d="M30.8,215.9c-13.6,4.8-16,56.9-16,56.9c16-8.8,35.3,5.6,35.3,5.6s4-13.6,8.8-31.3c3-10.1,0.5-21-6.4-28.9
	C52.5,218.3,44.5,211.1,30.8,215.9z"/>
<path class="st3" d="M58.5,169.8c3.2-2.5,7.5,2.1,7.5,2.1l2.5-22.8c0,0,15.8,1.9,25.9-0.6s11.7,9.2,11.7,9.2
	c0.5-4.7,0.6-9.5,0.3-14.2c-0.6-5.7-8.9-11.4-23.4-15.2s-22.2,12.7-22.2,12.7C50.8,146,55.3,172.4,58.5,169.8z"/>
<path class="st5" d="M481,385.5c1,0,1.9-0.7,2.1-1.6L538.4,83c0.2-1.1-0.5-2.1-1.6-2.3c-0.1,0-0.2,0-0.3,0l-251.5-2.9h0
	c-0.9,0-1.7,0.7-2,1.6l-65.2,291.1c-0.2,1.1,0.4,2.1,1.5,2.4c0.1,0,0.2,0,0.3,0L481,385.5z"/>
<path class="st5" d="M262.1,404.8c-0.5,0-0.9,0.3-1,0.8l-2.3,10c-0.1,0.5,0.2,1.1,0.7,1.2c0.1,0,0.1,0,0.2,0L391,426
	c0.5,0,1-0.3,1.1-0.8l2.2-11.5c0.1-0.5-0.2-1.1-0.8-1.2c0,0-0.1,0-0.1,0L262.1,404.8C262.2,404.8,262.2,404.8,262.1,404.8z"/>
<path class="st5" d="M421.6,463c0.5,0,0.9-0.3,1.1-0.8l2.8-11.5c0.1-0.5-0.2-1.1-0.7-1.2c-0.1,0-0.1,0-0.2,0L257,437.8
	c-0.5,0-0.9,0.3-1,0.7l-3,10c-0.2,0.5,0.1,1.1,0.7,1.2c0.1,0,0.1,0,0.2,0L421.6,463z"/>
<path class="st5" d="M412.6,500c0.5,0,0.9-0.3,1.1-0.8l2.8-11.5c0.1-0.5-0.2-1.1-0.7-1.2c-0.1,0-0.1,0-0.2,0L248,474.8
	c-0.5,0-0.9,0.3-1,0.7l-3,10c-0.2,0.5,0.1,1.1,0.7,1.2c0.1,0,0.1,0,0.2,0L412.6,500z"/>
<path class="st4" d="M335.4,563.5c0.5,0.1,0.9-0.3,1.1-0.8l6-24.1c0.1-0.5-0.2-1.1-0.7-1.2c-0.1,0-0.1,0-0.2,0l-102.9-8.7
	c-0.5,0-0.9,0.3-1.1,0.8l-5.1,23.1c-0.1,0.5,0.2,1.1,0.8,1.2c0,0,0.1,0,0.1,0L335.4,563.5z"/>
</svg>
