<?xml version="1.0" encoding="utf-8"?>
<!-- Generator: Adobe Illustrator 24.0.1, SVG Export Plug-In . SVG Version: 6.00 Build 0)  -->
<svg version="1.1" id="a9a7ffe7-bffb-40a8-a3c8-a3664a9c484c"
	 xmlns="http://www.w3.org/2000/svg" xmlns:xlink="http://www.w3.org/1999/xlink" x="0px" y="0px" viewBox="0 0 489 711.8"
	 style="enable-background:new 0 0 489 711.8;" xml:space="preserve">
<style type="text/css">
	.st0{fill:#E6E6E6;}
	.st1{fill:#3F3D56;}
	.st2{fill:#FFFFFF;}
	.st3{fill:#F50057;}
</style>
<title>access_account</title>
<path class="st0" d="M109.9,554.2l-8.9-35.1c-15.8-6.7-31.9-12.5-48.3-17.3l-1.1,16.3l-4.6-18c-20.4-5.8-34.2-8.4-34.2-8.4
	S31.5,563,70.8,617.3l45.7,8L81,630.5c4.9,5.9,10.2,11.6,15.9,16.8c57.1,53,120.7,77.3,142,54.3s-7.6-84.6-64.7-137.6
	c-17.7-16.4-39.9-29.6-62.2-40L109.9,554.2z"/>
<path class="st0" d="M131.7,516.2l10.5-34.6c-10-13.9-20.9-27.2-32.4-39.8l-9.4,13.4l5.4-17.7c-14.4-15.5-25-24.9-25-24.9
	S60.1,483.1,65.6,550l35,30.5l-33.1-14c1.2,7.6,2.8,15.2,4.9,22.6C93.9,664,135.7,717.6,165.9,709s37.2-76.4,15.7-151.2
	c-6.7-23.2-18.9-46-32.6-66.4L131.7,516.2z"/>
<path class="st0" d="M460.1,672.1l9.4-2.7c1.7-4.3,3.1-8.7,4.2-13.1l-4.4-0.2l4.8-1.4c1.4-5.5,2-9.3,2-9.3s-19,5.7-33.3,16.7
	l-1.8,12.4l-1.7-9.5c-1.6,1.4-3,2.9-4.4,4.4c-13.8,15.8-19.7,33.1-13.4,38.7s22.7-2.8,36.4-18.6c4.3-5.1,7.7-10.9,10.2-17.1
	L460.1,672.1z"/>
<path class="st1" d="M454.5,48.3v612.2c0,26.7-21.6,48.3-48.3,48.3H168.3c-26.7,0-48.3-21.6-48.3-48.3V48.3
	C120,21.6,141.6,0,168.3,0h28.9c-4.8,11.7,0.9,25.1,12.6,29.9c2.7,1.1,5.7,1.7,8.6,1.7H354c12.7,0,23-10.3,22.9-23
	c0-3-0.6-5.9-1.7-8.6h30.9C432.9,0,454.5,21.6,454.5,48.3z"/>
<path class="st2" d="M253.7,253.5c0-8.5,4.6-16.4,11.9-20.7c-11.4-6.6-26-2.7-32.6,8.7c-6.6,11.4-2.7,26,8.7,32.6
	c7.4,4.3,16.5,4.3,23.9,0C258.3,270,253.7,262.1,253.7,253.5z"/>
<path class="st2" d="M283.8,253.5c0-8.5,4.6-16.4,11.9-20.7c-11.4-6.6-26-2.7-32.6,8.7c-6.6,11.4-2.7,26,8.7,32.6
	c7.4,4.3,16.5,4.3,23.9,0C288.3,270,283.8,262.1,283.8,253.5z"/>
<circle class="st3" cx="313.1" cy="253.5" r="23.9"/>
<rect x="180.6" y="409.9" class="st2" width="213.6" height="2"/>
<ellipse transform="matrix(0.1602 -0.9871 0.9871 0.1602 -228.3133 512.9928)" class="st3" cx="187.3" cy="390.7" rx="6.7" ry="6.7"/>
<rect x="180.6" y="477.3" class="st2" width="213.6" height="2"/>
<ellipse transform="matrix(0.1602 -0.9871 0.9871 0.1602 -294.8839 569.6313)" class="st3" cx="187.3" cy="458.1" rx="6.7" ry="6.7"/>
<path class="st2" d="M353,328.2H213.8c-2.8,0-5-2.2-5-5V183.9c0-2.8,2.2-5,5-5H353c2.8,0,5,2.2,5,5v139.2
	C358,325.9,355.8,328.2,353,328.2z M213.8,180.9c-1.7,0-3,1.3-3,3v139.2c0,1.7,1.3,3,3,3H353c1.7,0,3-1.3,3-3V183.9c0-1.7-1.3-3-3-3
	H213.8z"/>
<path class="st3" d="M322.8,522.2h67.3c2.2,0,4,1.8,4,4v23.5c0,2.2-1.8,4-4,4h-67.3c-2.2,0-4-1.8-4-4v-23.5
	C318.8,524,320.6,522.2,322.8,522.2z"/>
</svg>
